<svg xmlns="http://www.w3.org/2000/svg" xmlns:xlink="http://www.w3.org/1999/xlink" xmlns:svgjs="http://svgjs.com/svgjs" width="512" height="512" x="0" y="0" viewBox="0 0 512 512" style="enable-background:new 0 0 512 512" xml:space="preserve" class=""><g><path d="M371.222 495.554c13.984-4.202 27.089-9.194 39.06-14.94 43.183-20.726 66.964-48.976 66.964-79.549 0-30.571-23.781-58.823-66.964-79.549-22.256-10.682-48.419-18.775-76.906-23.974 12.44-3.127 24.037-7.012 34.445-11.636 32.044-14.239 49.69-33.952 49.69-55.507s-17.648-41.269-49.69-55.507c-14.469-6.43-31.214-11.45-49.381-14.941 29.094-10.537 47.872-28.385 47.872-49.017 0-24.617-26.73-45.27-65.824-54.271 9.179-5.866 14.624-13.694 14.624-22.53C315.112 15.029 289.699.621 256 .621s-59.112 14.407-59.112 33.512c0 8.837 5.445 16.664 14.624 22.53-39.094 9-65.824 29.654-65.824 54.271 0 20.633 18.777 38.481 47.872 49.017-18.168 3.491-34.912 8.512-49.381 14.941-32.044 14.239-49.69 33.952-49.69 55.507s17.647 41.269 49.69 55.507c10.407 4.625 22.004 8.51 34.444 11.636-28.486 5.2-54.65 13.292-76.905 23.974-43.182 20.726-66.962 48.977-66.962 79.549 0 30.572 23.781 58.823 66.962 79.549 11.971 5.745 25.076 10.738 39.06 14.94H0v15.824h512v-15.824H371.222zM256 16.445c26.425 0 43.288 10.476 43.288 17.689S282.425 51.822 256 51.822c-26.424 0-43.288-10.476-43.288-17.689 0-7.212 16.864-17.688 43.288-17.688zM187.124 140.05c-16.277-8.143-25.612-18.755-25.612-29.117s9.336-20.974 25.612-29.117c18.267-9.139 42.728-14.172 68.876-14.172 26.148 0 50.609 5.033 68.876 14.172 16.277 8.143 25.612 18.756 25.612 29.117 0 10.36-9.336 20.973-25.612 29.117-18.267 9.139-42.728 14.172-68.876 14.172-26.148-.001-50.609-5.034-68.876-14.172zm-36.519 131.397c-25.607-11.379-40.293-26.34-40.293-41.048s14.686-29.668 40.293-41.048c28.019-12.451 65.45-19.308 105.395-19.308s77.377 6.857 105.395 19.308c25.607 11.378 40.293 26.34 40.293 41.048s-14.686 29.668-40.293 41.048c-28.019 12.451-65.45 19.308-105.395 19.308s-77.375-6.857-105.395-19.308zm-42.04 194.903c-37.392-17.947-57.986-41.132-57.986-65.283s20.594-47.336 57.986-65.283c39.238-18.833 91.599-29.205 147.435-29.205 55.837 0 108.197 10.372 147.436 29.205 37.392 17.947 57.986 41.132 57.986 65.283s-20.594 47.336-57.986 65.283c-39.238 18.833-91.599 29.205-147.436 29.205-55.837-.001-108.197-10.373-147.435-29.205z" fill="#75707a" data-original="#000000" opacity="1" class=""></path><path d="m189.684 115.078 13.165 8.777c14.438-21.655 44.339-22.075 44.64-22.077l-.022-15.824c-1.567.001-38.589.332-57.783 29.124zM148.017 348.722c-28.607 9.034-49.779 25.912-61.227 48.806l14.153 7.076c23.058-46.116 86.166-46.825 86.801-46.826l-.011-15.824c-.747.001-18.53.077-39.716 6.768zM358.405 435.825h17.066v15.824h-17.066zM383.997 410.222h17.066v15.824h-17.066zM409.6 384.62h17.066v15.824H409.6z" fill="#75707a" data-original="#000000" opacity="1" class=""></path></g></svg>