<svg xmlns="http://www.w3.org/2000/svg" xmlns:xlink="http://www.w3.org/1999/xlink" xmlns:svgjs="http://svgjs.com/svgjs" width="512" height="512" x="0" y="0" viewBox="0 0 512 512" style="enable-background:new 0 0 512 512" xml:space="preserve" class=""><g><g data-name="Layer 21"><path d="M485.656 53.659a8 8 0 0 0 0-11.313l-16-16a7.955 7.955 0 0 0-8.188-1.929l-19.308 6.429-12.5-12.5a7.893 7.893 0 0 0-2.078-1.5l-16-8a8.008 8.008 0 0 0-7.156 0l-16 8A8 8 0 0 0 384 24v8h-16a8.01 8.01 0 0 0-4.438 1.343l-24 16a8.009 8.009 0 0 0-3.324 4.719L329.133 82.5l-12.711 6.351a7.964 7.964 0 0 0-2.079 1.5l-11.526 11.525C282.4 47.151 229.753 8 168 8 88.6 8 24 72.6 24 152a143.974 143.974 0 0 0 113.375 140.64l23.468 46.938a8 8 0 0 0 14.313 0l23.469-46.938a143.31 143.31 0 0 0 21.629-6.583l3.109 9.325-6.52 13.04a8.276 8.276 0 0 0-.433 1.046l-8 24a8 8 0 0 0 1.933 8.188l14.665 14.664 7.4 22.211a7.975 7.975 0 0 0 1.933 3.125l5.659 5.659V408a7.992 7.992 0 0 0 5.468 7.586l22.985 7.664 20.535 13.687 7.012 28.05V488a8 8 0 0 0 8 8 7.854 7.854 0 0 0 2.531-.414l24-8a7.977 7.977 0 0 0 5.059-5.055l8-24A8 8 0 0 0 344 456v-31.013l6.867-27.477 28.711-14.351A8 8 0 0 0 384 376v-27.716l20.437-13.625a7.988 7.988 0 0 0 3.453-5.344l8-48A7.685 7.685 0 0 0 416 280v-38.11l15.156-30.312A8 8 0 0 0 432 208v-20.685l13.656-13.656a8.037 8.037 0 0 0 1-1.219l16-24a8.027 8.027 0 0 0 1.105-2.5l8-32a8.016 8.016 0 0 0-.171-4.469L464.433 88l6.559-19.68ZM191.738 277.714a8.01 8.01 0 0 0-5.68 4.281L168 318.112 149.941 282a8.01 8.01 0 0 0-5.68-4.281 128 128 0 1 1 47.477 0ZM458.343 58.346a7.982 7.982 0 0 0-1.933 3.125l-8 24a8.016 8.016 0 0 0 0 5.063l7.266 21.789-7.1 28.4-14.793 22.188-15.438 15.437A8 8 0 0 0 416 184v22.109l-15.157 30.313A8.01 8.01 0 0 0 400 240v39.336l-7.321 43.929-21.117 14.078A8.005 8.005 0 0 0 368 344v27.054l-27.578 13.789a8.011 8.011 0 0 0-4.184 5.219l-8 32A8.085 8.085 0 0 0 328 424v30.7l-6.324 18.969L312 476.9V464a8.036 8.036 0 0 0-.239-1.938l-8-32a8.009 8.009 0 0 0-3.324-4.719l-24-16a7.616 7.616 0 0 0-1.906-.929L256 402.237V384a8 8 0 0 0-2.344-5.657l-6.664-6.664-7.4-22.211a7.984 7.984 0 0 0-1.934-3.125l-12.5-12.507 6.258-18.766 7.746-15.492a8 8 0 0 0 .434-6.11l-4.684-14.051a143.112 143.112 0 0 0 73.185-160.2l16.647-16.641 14.84-7.422a8.007 8.007 0 0 0 4.183-5.219l7.25-29L370.422 48H392a8 8 0 0 0 8-8V28.948l8-4 11.261 5.633 15.082 15.078a7.99 7.99 0 0 0 8.188 1.93l19.309-6.43L468.687 48Z" fill="#75707a" data-original="#000000" class="" opacity="1"></path><path d="M168 40a112 112 0 1 0 112 112A112.126 112.126 0 0 0 168 40Zm0 16a95.9 95.9 0 0 1 16 1.445V168H73.445A95.447 95.447 0 0 1 168 56Zm0 192a96.079 96.079 0 0 1-90.4-64H192a8 8 0 0 0 8-8V61.6A95.936 95.936 0 0 1 168 248Z" fill="#75707a" data-original="#000000" class="" opacity="1"></path><path d="m108.422 127.159 4.668 2.336-1.649 4.945a8 8 0 0 0 10.121 10.117l4.949-1.648 2.332 4.672a8 8 0 0 0 14.313 0l2.332-4.672 4.949 1.648a8 8 0 0 0 10.121-10.117l-1.648-4.94 4.668-2.336a8 8 0 0 0 0-14.313l-4.668-2.336 1.648-4.945a8 8 0 0 0-10.121-10.117l-4.949 1.647-2.332-4.671c-2.711-5.422-11.6-5.422-14.313 0l-2.332 4.671-4.949-1.648a8 8 0 0 0-10.121 10.117l1.649 4.945-4.668 2.336a8 8 0 0 0 0 14.313Zm22.449-12.289a7.988 7.988 0 0 0 5.129-2.125 7.983 7.983 0 0 0 5.129 2.125 8.04 8.04 0 0 0 2.125 5.13 8.035 8.035 0 0 0-2.125 5.132A7.994 7.994 0 0 0 136 127.26a8 8 0 0 0-5.129-2.125 8.035 8.035 0 0 0-2.125-5.135 8.04 8.04 0 0 0 2.125-5.13Z" fill="#75707a" data-original="#000000" class="" opacity="1"></path></g></g></svg>